<?xml version="1.0" encoding="UTF-8"?>
<svg xmlns="http://www.w3.org/2000/svg" xmlns:xlink="http://www.w3.org/1999/xlink" width="1920" height="1080" viewBox="0 0 1920 1080">
<defs>
<g>
<g id="glyph-0-0">
<path d="M 0.515625 0 L 0.515625 -0.484375 L 1.390625 -0.484375 L 1.390625 -6.390625 L 0.515625 -6.390625 L 0.515625 -6.875 L 6.15625 -6.875 L 6.15625 -5.34375 L 5.578125 -5.34375 L 5.578125 -6.3125 L 2.328125 -6.3125 L 2.328125 -4.015625 L 4.6875 -4.015625 L 4.6875 -4.875 L 5.25 -4.875 L 5.25 -2.578125 L 4.6875 -2.578125 L 4.6875 -3.453125 L 2.328125 -3.453125 L 2.328125 -0.484375 L 3.4375 -0.484375 L 3.4375 0 Z "/>
</g>
<g id="glyph-0-1">
<path d="M 2.84375 -0.328125 C 3.289062 -0.328125 3.628906 -0.503906 3.859375 -0.859375 C 4.097656 -1.222656 4.21875 -1.753906 4.21875 -2.453125 C 4.21875 -3.148438 4.097656 -3.675781 3.859375 -4.03125 C 3.628906 -4.394531 3.289062 -4.578125 2.84375 -4.578125 C 2.382812 -4.578125 2.035156 -4.394531 1.796875 -4.03125 C 1.566406 -3.675781 1.453125 -3.148438 1.453125 -2.453125 C 1.453125 -1.753906 1.566406 -1.222656 1.796875 -0.859375 C 2.035156 -0.503906 2.382812 -0.328125 2.84375 -0.328125 Z M 2.84375 0.140625 C 2.125 0.140625 1.546875 -0.09375 1.109375 -0.5625 C 0.679688 -1.039062 0.46875 -1.671875 0.46875 -2.453125 C 0.46875 -3.234375 0.679688 -3.859375 1.109375 -4.328125 C 1.546875 -4.796875 2.125 -5.03125 2.84375 -5.03125 C 3.550781 -5.03125 4.117188 -4.796875 4.546875 -4.328125 C 4.984375 -3.859375 5.203125 -3.234375 5.203125 -2.453125 C 5.203125 -1.671875 4.984375 -1.039062 4.546875 -0.5625 C 4.117188 -0.09375 3.550781 0.140625 2.84375 0.140625 Z "/>
</g>
<g id="glyph-0-2">
<path d="M 1.9375 -0.484375 L 2.734375 -0.484375 L 2.734375 0 L 0.265625 0 L 0.265625 -0.484375 L 1.09375 -0.484375 L 1.09375 -6.6875 L 0.265625 -6.6875 L 0.265625 -7.171875 L 1.9375 -7.171875 Z "/>
</g>
<g id="glyph-0-3">
<path d="M 4.53125 -4.90625 L 5.78125 -1.078125 L 6.890625 -4.40625 L 6.171875 -4.40625 L 6.171875 -4.90625 L 7.953125 -4.90625 L 7.953125 -4.40625 L 7.40625 -4.40625 L 5.953125 0 L 5.25 0 L 4.046875 -3.65625 L 2.828125 0 L 2.15625 0 L 0.703125 -4.40625 L 0.15625 -4.40625 L 0.15625 -4.90625 L 2.375 -4.90625 L 2.375 -4.40625 L 1.578125 -4.40625 L 2.671875 -1.078125 L 3.9375 -4.90625 Z "/>
</g>
<g id="glyph-0-4">
</g>
<g id="glyph-0-5">
<path d="M 4.0625 -6.015625 L 3.609375 -6.015625 C 3.609375 -6.242188 3.539062 -6.414062 3.40625 -6.53125 C 3.28125 -6.65625 3.097656 -6.71875 2.859375 -6.71875 C 2.546875 -6.71875 2.320312 -6.628906 2.1875 -6.453125 C 2.0625 -6.285156 2 -5.976562 2 -5.53125 L 2 -4.90625 L 3.375 -4.90625 L 3.375 -4.40625 L 2 -4.40625 L 2 -0.484375 L 3.09375 -0.484375 L 3.09375 0 L 0.34375 0 L 0.34375 -0.484375 L 1.15625 -0.484375 L 1.15625 -4.40625 L 0.34375 -4.40625 L 0.34375 -4.90625 L 1.15625 -4.90625 L 1.15625 -5.515625 C 1.15625 -6.054688 1.296875 -6.46875 1.578125 -6.75 C 1.859375 -7.03125 2.273438 -7.171875 2.828125 -7.171875 C 3.035156 -7.171875 3.238281 -7.148438 3.4375 -7.109375 C 3.644531 -7.078125 3.851562 -7.019531 4.0625 -6.9375 Z "/>
</g>
<g id="glyph-0-6">
<path d="M 4.515625 -4.90625 L 4.515625 -3.6875 L 4.015625 -3.6875 C 4.003906 -3.925781 3.9375 -4.101562 3.8125 -4.21875 C 3.695312 -4.34375 3.523438 -4.40625 3.296875 -4.40625 C 2.878906 -4.40625 2.554688 -4.257812 2.328125 -3.96875 C 2.109375 -3.6875 2 -3.273438 2 -2.734375 L 2 -0.484375 L 2.984375 -0.484375 L 2.984375 0 L 0.390625 0 L 0.390625 -0.484375 L 1.15625 -0.484375 L 1.15625 -4.421875 L 0.34375 -4.421875 L 0.34375 -4.90625 L 2 -4.90625 L 2 -4.03125 C 2.164062 -4.363281 2.378906 -4.613281 2.640625 -4.78125 C 2.898438 -4.945312 3.21875 -5.03125 3.59375 -5.03125 C 3.726562 -5.03125 3.875 -5.019531 4.03125 -5 C 4.1875 -4.976562 4.347656 -4.945312 4.515625 -4.90625 Z "/>
</g>
<g id="glyph-0-7">
<path d="M 4.890625 -3.9375 C 5.054688 -4.300781 5.265625 -4.570312 5.515625 -4.75 C 5.765625 -4.9375 6.0625 -5.03125 6.40625 -5.03125 C 6.914062 -5.03125 7.296875 -4.867188 7.546875 -4.546875 C 7.796875 -4.234375 7.921875 -3.753906 7.921875 -3.109375 L 7.921875 -0.484375 L 8.6875 -0.484375 L 8.6875 0 L 6.34375 0 L 6.34375 -0.484375 L 7.078125 -0.484375 L 7.078125 -3.015625 C 7.078125 -3.515625 7.003906 -3.867188 6.859375 -4.078125 C 6.710938 -4.296875 6.46875 -4.40625 6.125 -4.40625 C 5.75 -4.40625 5.460938 -4.257812 5.265625 -3.96875 C 5.066406 -3.6875 4.96875 -3.273438 4.96875 -2.734375 L 4.96875 -0.484375 L 5.703125 -0.484375 L 5.703125 0 L 3.375 0 L 3.375 -0.484375 L 4.109375 -0.484375 L 4.109375 -3.046875 C 4.109375 -3.535156 4.035156 -3.882812 3.890625 -4.09375 C 3.742188 -4.300781 3.5 -4.40625 3.15625 -4.40625 C 2.78125 -4.40625 2.492188 -4.257812 2.296875 -3.96875 C 2.097656 -3.6875 2 -3.273438 2 -2.734375 L 2 -0.484375 L 2.734375 -0.484375 L 2.734375 0 L 0.390625 0 L 0.390625 -0.484375 L 1.15625 -0.484375 L 1.15625 -4.421875 L 0.34375 -4.421875 L 0.34375 -4.90625 L 2 -4.90625 L 2 -4.03125 C 2.15625 -4.351562 2.351562 -4.597656 2.59375 -4.765625 C 2.84375 -4.941406 3.117188 -5.03125 3.421875 -5.03125 C 3.804688 -5.03125 4.125 -4.9375 4.375 -4.75 C 4.632812 -4.5625 4.804688 -4.289062 4.890625 -3.9375 Z "/>
</g>
<g id="glyph-0-8">
<path d="M 5.109375 -2.359375 L 1.453125 -2.359375 L 1.453125 -2.328125 C 1.453125 -1.660156 1.578125 -1.160156 1.828125 -0.828125 C 2.078125 -0.492188 2.445312 -0.328125 2.9375 -0.328125 C 3.3125 -0.328125 3.613281 -0.421875 3.84375 -0.609375 C 4.082031 -0.804688 4.25 -1.097656 4.34375 -1.484375 L 5.03125 -1.484375 C 4.894531 -0.941406 4.644531 -0.535156 4.28125 -0.265625 C 3.914062 0.00390625 3.4375 0.140625 2.84375 0.140625 C 2.132812 0.140625 1.5625 -0.09375 1.125 -0.5625 C 0.6875 -1.039062 0.46875 -1.671875 0.46875 -2.453125 C 0.46875 -3.222656 0.679688 -3.84375 1.109375 -4.3125 C 1.535156 -4.789062 2.097656 -5.03125 2.796875 -5.03125 C 3.535156 -5.03125 4.101562 -4.800781 4.5 -4.34375 C 4.894531 -3.882812 5.097656 -3.222656 5.109375 -2.359375 Z M 4.109375 -2.84375 C 4.097656 -3.414062 3.976562 -3.847656 3.75 -4.140625 C 3.53125 -4.429688 3.210938 -4.578125 2.796875 -4.578125 C 2.398438 -4.578125 2.085938 -4.429688 1.859375 -4.140625 C 1.640625 -3.847656 1.503906 -3.414062 1.453125 -2.84375 Z "/>
</g>
</g>
</defs>
<g fill="rgb(73.333333%, 73.333333%, 73.333333%)" fill-opacity="1">
<use xlink:href="#glyph-0-0" x="30" y="28.766602"/>
<use xlink:href="#glyph-0-1" x="36" y="28.766602"/>
<use xlink:href="#glyph-0-2" x="42" y="28.766602"/>
<use xlink:href="#glyph-0-2" x="45" y="28.766602"/>
<use xlink:href="#glyph-0-1" x="48" y="28.766602"/>
<use xlink:href="#glyph-0-3" x="54" y="28.766602"/>
<use xlink:href="#glyph-0-4" x="62" y="28.766602"/>
<use xlink:href="#glyph-0-5" x="65" y="28.766602"/>
<use xlink:href="#glyph-0-1" x="68" y="28.766602"/>
<use xlink:href="#glyph-0-6" x="74" y="28.766602"/>
<use xlink:href="#glyph-0-4" x="79" y="28.766602"/>
<use xlink:href="#glyph-0-7" x="82" y="28.766602"/>
<use xlink:href="#glyph-0-1" x="91" y="28.766602"/>
<use xlink:href="#glyph-0-6" x="97" y="28.766602"/>
<use xlink:href="#glyph-0-8" x="102" y="28.766602"/>
</g>
</svg>
